<svg width="78" height="79" viewBox="0 0 78 79" fill="none" xmlns="http://www.w3.org/2000/svg">
<g filter="url(#filter0_d_19_377)">
<path fill-rule="evenodd" clip-rule="evenodd" d="M38.819 66.1513C54.7337 66.1513 67.6351 53.2498 67.6351 37.3351C67.6351 21.4205 54.7337 8.51904 38.819 8.51904C22.9043 8.51904 10.0029 21.4205 10.0029 37.3351C10.0029 53.2498 22.9043 66.1513 38.819 66.1513Z" fill="white"/>
</g>
<path fill-rule="evenodd" clip-rule="evenodd" d="M42.4855 34.1647C42.0356 34.0224 41.5182 33.9275 41.0458 33.9275C40.4609 33.9275 39.2012 34.3308 39.2012 35.1136V36.9876H42.193V40.1425H39.2012V48.8483H36.1869V40.1425H34.7022V36.9876H36.1869V35.3982C36.1869 33.0024 37.2217 31.0098 39.7186 31.0098C40.5734 31.0098 42.1031 31.0572 42.9354 31.3656L42.4855 34.1647Z" fill="#080809"/>
<defs>
<filter id="filter0_d_19_377" x="0.00286865" y="0.519043" width="77.6322" height="77.6323" filterUnits="userSpaceOnUse" color-interpolation-filters="sRGB">
<feFlood flood-opacity="0" result="BackgroundImageFix"/>
<feColorMatrix in="SourceAlpha" type="matrix" values="0 0 0 0 0 0 0 0 0 0 0 0 0 0 0 0 0 0 127 0" result="hardAlpha"/>
<feOffset dy="2"/>
<feGaussianBlur stdDeviation="5"/>
<feColorMatrix type="matrix" values="0 0 0 0 0 0 0 0 0 0 0 0 0 0 0 0 0 0 0.1 0"/>
<feBlend mode="normal" in2="BackgroundImageFix" result="effect1_dropShadow_19_377"/>
<feBlend mode="normal" in="SourceGraphic" in2="effect1_dropShadow_19_377" result="shape"/>
</filter>
</defs>
</svg>
