<svg width="151" height="51" viewBox="0 0 151 51" fill="none" xmlns="http://www.w3.org/2000/svg">
<rect x="0.191528" y="0.953125" width="150.406" height="49.1982" rx="17.5" fill="#080809"/>
<g clip-path="url(#clip0_19_392)">
<path d="M40.2633 24.8518L26.1455 38.4463C25.4844 37.9945 25.0919 37.243 25.0988 36.4423V13.2614C25.0919 12.4607 25.4844 11.7091 26.1455 11.2573L40.2633 24.8518Z" fill="#2196F3"/>
<path d="M45.2033 20.1036L40.2633 24.8521L26.1455 11.2576C26.1987 11.2164 26.2541 11.178 26.3114 11.1427C27.0576 10.6905 27.9896 10.6759 28.7495 11.1044L45.2033 20.1036Z" fill="#4CAF50"/>
<path d="M51.19 24.852C51.1992 25.7559 50.708 26.5909 49.9135 27.0221L45.2033 29.6005L40.2634 24.852L45.2033 20.1035L49.9135 22.682C50.708 23.1132 51.1992 23.9481 51.19 24.852Z" fill="#F0BB1F"/>
<path d="M45.2033 29.6006L28.7495 38.5997C27.9879 39.0216 27.0594 39.007 26.3114 38.5614C26.2541 38.5261 26.1987 38.4878 26.1455 38.4466L40.2634 24.8521L45.2033 29.6006Z" fill="#F15A2B"/>
</g>
<path d="M67.6971 17.6528H63.75V19.2271H65.8529C65.5718 19.9805 64.8858 20.4416 63.84 20.4416C62.3106 20.4416 61.366 19.4633 61.366 18.1251C61.366 16.7419 62.3556 15.7635 63.6826 15.7635C64.5709 15.7635 65.2794 16.1684 65.6055 16.6857L67.1349 15.8085C66.4714 14.7515 65.2007 14.0093 63.6938 14.0093C61.3773 14.0093 59.5668 15.831 59.5668 18.1138C59.5668 20.3741 61.3435 22.1959 63.8175 22.1959C66.0216 22.1959 67.6971 20.734 67.6971 18.3275V17.6528Z" fill="white"/>
<path d="M69.9485 20.3067V18.9122H72.7598V17.2029H69.9485V15.8985H73.0409V14.1667H68.1492V22.0384H73.0972V20.3067H69.9485Z" fill="white"/>
<path d="M78.8353 14.1667H72.9878V15.8985H75.0119V22.0384H76.8112V15.8985H78.8353V14.1667Z" fill="white"/>
<path d="M81.3098 14.1667V22.0384H83.109V14.1667H81.3098Z" fill="white"/>
<path d="M89.1845 14.1667H83.337V15.8985H85.3611V22.0384H87.1604V15.8985H89.1845V14.1667Z" fill="white"/>
<path d="M95.4149 22.1959C97.6752 22.1959 99.5082 20.4191 99.5082 18.1026C99.5082 15.786 97.6752 14.0093 95.4149 14.0093C93.1546 14.0093 91.3216 15.786 91.3216 18.1026C91.3216 20.4191 93.1546 22.1959 95.4149 22.1959ZM95.4149 20.4416C94.1329 20.4416 93.1208 19.5082 93.1208 18.1026C93.1208 16.6969 94.1329 15.7635 95.4149 15.7635C96.6968 15.7635 97.7089 16.6969 97.7089 18.1026C97.7089 19.5082 96.6968 20.4416 95.4149 20.4416Z" fill="white"/>
<path d="M104.345 14.1667V18.4399L101.308 14.1667H99.959V22.0384H101.758V17.7652L104.794 22.0384H106.144V14.1667H104.345Z" fill="white"/>
<path d="M67.6971 31.0234V31.3271C67.6971 32.3091 67.3485 33.1376 66.6513 33.8123C65.9541 34.4795 65.0357 34.8131 63.8962 34.8131C62.6967 34.8131 61.7071 34.4233 60.9275 33.6436C60.1478 32.8564 59.7579 31.8931 59.7579 30.7535C59.7579 29.614 60.144 28.6544 60.9162 27.8747C61.6884 27.0876 62.6667 26.694 63.8512 26.694C64.5709 26.694 65.2307 26.8664 65.8304 27.2113C66.4377 27.5561 66.9062 28.0172 67.2361 28.5944L66.7075 28.9093C66.4452 28.4145 66.0553 28.0172 65.538 27.7173C65.0282 27.4174 64.466 27.2675 63.8512 27.2675C62.8317 27.2675 61.992 27.6049 61.3323 28.2796C60.6801 28.9468 60.3539 29.7715 60.3539 30.7535C60.3539 31.7356 60.6838 32.564 61.3435 33.2388C62.0033 33.906 62.8542 34.2396 63.8962 34.2396C64.8183 34.2396 65.5643 33.9884 66.134 33.4862C66.7038 32.9839 67.0224 32.3504 67.0899 31.5857H63.75V31.0234H67.6971Z" fill="white"/>
<path d="M75.6794 33.6323C74.8922 34.4195 73.9326 34.8131 72.8006 34.8131C71.6685 34.8131 70.7089 34.4195 69.9218 33.6323C69.1346 32.8377 68.741 31.8781 68.741 30.7535C68.741 29.629 69.1346 28.6732 69.9218 27.886C70.7089 27.0913 71.6685 26.694 72.8006 26.694C73.9326 26.694 74.8922 27.0913 75.6794 27.886C76.4665 28.6732 76.8601 29.629 76.8601 30.7535C76.8601 31.8781 76.4665 32.8377 75.6794 33.6323ZM70.3378 33.2275C71.0126 33.9022 71.8335 34.2396 72.8006 34.2396C73.7677 34.2396 74.5848 33.9022 75.252 33.2275C75.9268 32.5453 76.2641 31.7206 76.2641 30.7535C76.2641 29.7864 75.9268 28.9655 75.252 28.2908C74.5848 27.6086 73.7677 27.2675 72.8006 27.2675C71.8335 27.2675 71.0126 27.6086 70.3378 28.2908C69.6706 28.9655 69.337 29.7864 69.337 30.7535C69.337 31.7206 69.6706 32.5453 70.3378 33.2275Z" fill="white"/>
<path d="M84.8601 33.6323C84.0729 34.4195 83.1133 34.8131 81.9813 34.8131C80.8493 34.8131 79.8897 34.4195 79.1025 33.6323C78.3153 32.8377 77.9218 31.8781 77.9218 30.7535C77.9218 29.629 78.3153 28.6732 79.1025 27.886C79.8897 27.0913 80.8493 26.694 81.9813 26.694C83.1133 26.694 84.0729 27.0913 84.8601 27.886C85.6473 28.6732 86.0409 29.629 86.0409 30.7535C86.0409 31.8781 85.6473 32.8377 84.8601 33.6323ZM79.5186 33.2275C80.1933 33.9022 81.0142 34.2396 81.9813 34.2396C82.9484 34.2396 83.7656 33.9022 84.4328 33.2275C85.1075 32.5453 85.4449 31.7206 85.4449 30.7535C85.4449 29.7864 85.1075 28.9655 84.4328 28.2908C83.7656 27.6086 82.9484 27.2675 81.9813 27.2675C81.0142 27.2675 80.1933 27.6086 79.5186 28.2908C78.8514 28.9655 78.5178 29.7864 78.5178 30.7535C78.5178 31.7206 78.8514 32.5453 79.5186 33.2275Z" fill="white"/>
<path d="M95.0417 31.0234V31.3271C95.0417 32.3091 94.6931 33.1376 93.9959 33.8123C93.2987 34.4795 92.3803 34.8131 91.2408 34.8131C90.0413 34.8131 89.0517 34.4233 88.272 33.6436C87.4923 32.8564 87.1025 31.8931 87.1025 30.7535C87.1025 29.614 87.4886 28.6544 88.2608 27.8747C89.0329 27.0876 90.0113 26.694 91.1958 26.694C91.9155 26.694 92.5752 26.8664 93.175 27.2113C93.7822 27.5561 94.2508 28.0172 94.5806 28.5944L94.0521 28.9093C93.7897 28.4145 93.3999 28.0172 92.8826 27.7173C92.3728 27.4174 91.8105 27.2675 91.1958 27.2675C90.1762 27.2675 89.3366 27.6049 88.6768 28.2796C88.0246 28.9468 87.6985 29.7715 87.6985 30.7535C87.6985 31.7356 88.0284 32.564 88.6881 33.2388C89.3478 33.906 90.1987 34.2396 91.2408 34.2396C92.1629 34.2396 92.9088 33.9884 93.4786 33.4862C94.0483 32.9839 94.367 32.3504 94.4344 31.5857H91.0946V31.0234H95.0417Z" fill="white"/>
<path d="M97.1314 34.1271H100.842V34.6894H96.5354V26.8177H97.1314V34.1271Z" fill="white"/>
<path d="M102.677 34.1271H106.613V34.6894H102.081V26.8177H106.557V27.38H102.677V30.4387H106.276V31.0009H102.677V34.1271Z" fill="white"/>
<path d="M113.752 26.8177C114.456 26.8177 115.041 27.0501 115.506 27.5149C115.971 27.9797 116.203 28.5607 116.203 29.2579C116.203 29.9551 115.971 30.5361 115.506 31.0009C115.041 31.4583 114.456 31.6869 113.752 31.6869H111.671V34.6894H111.075V26.8177H113.752ZM113.752 31.1246C114.291 31.1246 114.734 30.9485 115.079 30.5961C115.431 30.2438 115.607 29.7977 115.607 29.2579C115.607 28.7106 115.431 28.2608 115.079 27.9085C114.734 27.5561 114.291 27.38 113.752 27.38H111.671V31.1246H113.752Z" fill="white"/>
<path d="M118.271 34.1271H121.982V34.6894H117.675V26.8177H118.271V34.1271Z" fill="white"/>
<path d="M128.737 34.6894L127.973 32.6877H124.025L123.261 34.6894H122.631L125.69 26.8177H126.319L129.367 34.6894H128.737ZM124.25 32.1255H127.759L126.005 27.5486L124.25 32.1255Z" fill="white"/>
<path d="M134.968 26.8177L132.1 31.4508V34.6894H131.504V31.4508L128.637 26.8177H129.311L131.808 30.8772L134.293 26.8177H134.968Z" fill="white"/>
<defs>
<clipPath id="clip0_19_392">
<rect width="28.1133" height="28.1133" fill="white" transform="translate(24.0878 10.793)"/>
</clipPath>
</defs>
</svg>
