<svg width="142" height="51" viewBox="0 0 142 51" fill="none" xmlns="http://www.w3.org/2000/svg">
<rect x="0.437195" y="0.953125" width="140.566" height="49.1982" rx="17.5" fill="#080809"/>
<path d="M31.0656 34.689C27.7183 34.6697 24.9495 27.8367 24.9495 24.3569C24.9495 18.6726 29.2137 17.4281 30.8571 17.4281C31.5977 17.4281 32.3885 17.719 33.086 17.9763C33.5738 18.1559 34.0782 18.3412 34.3588 18.3412C34.5267 18.3412 34.9225 18.1835 35.2719 18.0452C36.017 17.7486 36.9442 17.3799 38.0239 17.3799C38.0259 17.3799 38.0285 17.3799 38.0304 17.3799C38.8366 17.3799 41.2811 17.5568 42.7508 19.7639L43.095 20.2812L42.5996 20.6551C41.8918 21.1891 40.6003 22.1634 40.6003 24.0931C40.6003 26.3787 42.0629 27.2577 42.7656 27.6804C43.0758 27.867 43.3968 28.0594 43.3968 28.4802C43.3968 28.755 41.2039 34.6549 38.0194 34.6549C37.2402 34.6549 36.6894 34.4207 36.2036 34.2141C35.712 34.005 35.2879 33.8248 34.5872 33.8248C34.232 33.8248 33.7828 33.9928 33.3073 34.171C32.6575 34.4135 31.922 34.689 31.0874 34.689H31.0656Z" fill="white"/>
<path d="M38.3613 12.1987C38.4443 15.1891 36.3057 17.2637 34.1696 17.1336C33.8176 14.7472 36.3054 12.1987 38.3613 12.1987Z" fill="white"/>
<path d="M55.3002 19.2271H56.7762L54.7689 13.3233H53.0484L51.0411 19.2271H52.517L52.8122 18.2994H55.005L55.3002 19.2271ZM53.217 17.0343L53.9086 14.8668L54.6002 17.0343H53.217Z" fill="white"/>
<path d="M59.7631 15.0101L58.886 17.6837L58.0089 15.0101H56.6088L58.1691 19.2271H59.6029L61.1632 15.0101H59.7631Z" fill="white"/>
<path d="M64.5242 15.0101V15.4065C64.2459 15.086 63.8326 14.8921 63.2675 14.8921C62.1627 14.8921 61.2518 15.862 61.2518 17.1186C61.2518 18.3753 62.1627 19.3452 63.2675 19.3452C63.8326 19.3452 64.2459 19.1512 64.5242 18.8307V19.2271H65.7893V15.0101H64.5242ZM63.5205 18.1476C62.9386 18.1476 62.5169 17.7512 62.5169 17.1186C62.5169 16.4861 62.9386 16.0897 63.5205 16.0897C64.1025 16.0897 64.5242 16.4861 64.5242 17.1186C64.5242 17.7512 64.1025 18.1476 63.5205 18.1476Z" fill="white"/>
<path d="M66.7174 19.2271H67.9825V13.0703H66.7174V19.2271Z" fill="white"/>
<path d="M69.5408 14.639C69.9541 14.639 70.2999 14.2932 70.2999 13.88C70.2999 13.4667 69.9541 13.1209 69.5408 13.1209C69.1276 13.1209 68.7818 13.4667 68.7818 13.88C68.7818 14.2932 69.1276 14.639 69.5408 14.639ZM68.9083 19.2271H70.1734V15.0101H68.9083V19.2271Z" fill="white"/>
<path d="M73.6209 14.8921C73.0558 14.8921 72.6426 15.086 72.3642 15.4065V13.3233H71.0991V19.2271H72.3642V18.8307C72.6426 19.1512 73.0558 19.3452 73.6209 19.3452C74.7257 19.3452 75.6366 18.3753 75.6366 17.1186C75.6366 15.862 74.7257 14.8921 73.6209 14.8921ZM73.3679 18.1476C72.7859 18.1476 72.3642 17.7512 72.3642 17.1186C72.3642 16.4861 72.7859 16.0897 73.3679 16.0897C73.9498 16.0897 74.3715 16.4861 74.3715 17.1186C74.3715 17.7512 73.9498 18.1476 73.3679 18.1476Z" fill="white"/>
<path d="M76.3539 19.2271H77.619V13.0703H76.3539V19.2271Z" fill="white"/>
<path d="M79.6749 17.6247H82.669C82.7027 17.4644 82.7196 17.2957 82.7196 17.1186C82.7196 15.8451 81.8087 14.8921 80.5773 14.8921C79.2448 14.8921 78.3339 15.862 78.3339 17.1186C78.3339 18.3753 79.2279 19.3452 80.6701 19.3452C81.4713 19.3452 82.0955 19.05 82.5087 18.4765L81.4967 17.8946C81.328 18.0801 81.0328 18.215 80.687 18.215C80.2231 18.215 79.8352 18.0632 79.6749 17.6247ZM79.6496 16.6801C79.7677 16.2499 80.0882 16.0138 80.5689 16.0138C80.9484 16.0138 81.328 16.1909 81.4629 16.6801H79.6496Z" fill="white"/>
<path d="M87.5698 19.3452C88.8096 19.3452 89.8048 18.3753 89.8048 17.1186C89.8048 15.862 88.8096 14.8921 87.5698 14.8921C86.33 14.8921 85.3348 15.862 85.3348 17.1186C85.3348 18.3753 86.33 19.3452 87.5698 19.3452ZM87.5698 18.1138C87.0216 18.1138 86.5999 17.7174 86.5999 17.1186C86.5999 16.5198 87.0216 16.1234 87.5698 16.1234C88.118 16.1234 88.5397 16.5198 88.5397 17.1186C88.5397 17.7174 88.118 18.1138 87.5698 18.1138Z" fill="white"/>
<path d="M92.9915 14.8921C92.4349 14.8921 92.0132 15.0945 91.7854 15.4065V15.0101H90.5204V19.2271H91.7854V16.9246C91.7854 16.3258 92.1059 16.0559 92.5698 16.0559C92.9746 16.0559 93.3036 16.3005 93.3036 16.8234V19.2271H94.5687V16.6379C94.5687 15.4993 93.8433 14.8921 92.9915 14.8921Z" fill="white"/>
<path d="M100.017 16.2246V15.0101H99.1484V13.8294L97.8833 14.2089V15.0101H97.2086V16.2246H97.8833V17.7174C97.8833 18.8982 98.364 19.3958 100.017 19.2271V18.0801C99.4604 18.1138 99.1484 18.0801 99.1484 17.7174V16.2246H100.017Z" fill="white"/>
<path d="M103.205 14.8921C102.648 14.8921 102.226 15.0945 101.998 15.4065V13.3233H100.733V19.2271H101.998V16.9246C101.998 16.3258 102.319 16.0559 102.783 16.0559C103.188 16.0559 103.517 16.3005 103.517 16.8234V19.2271H104.782V16.6379C104.782 15.4993 104.056 14.8921 103.205 14.8921Z" fill="white"/>
<path d="M106.781 17.6247H109.775C109.808 17.4644 109.825 17.2957 109.825 17.1186C109.825 15.8451 108.914 14.8921 107.683 14.8921C106.35 14.8921 105.44 15.862 105.44 17.1186C105.44 18.3753 106.334 19.3452 107.776 19.3452C108.577 19.3452 109.201 19.05 109.614 18.4765L108.602 17.8946C108.434 18.0801 108.138 18.215 107.793 18.215C107.329 18.215 106.941 18.0632 106.781 17.6247ZM106.755 16.6801C106.873 16.2499 107.194 16.0138 107.675 16.0138C108.054 16.0138 108.434 16.1909 108.569 16.6801H106.755Z" fill="white"/>
<path d="M58.1397 34.6894H60.5996L57.2541 24.8498H54.3866L51.0411 34.6894H53.501L53.993 33.1432H57.6477L58.1397 34.6894ZM54.6677 31.0347L55.8203 27.4221L56.973 31.0347H54.6677Z" fill="white"/>
<path d="M65.5712 27.4643C64.6295 27.4643 63.9407 27.7876 63.4768 28.3218V27.6611H61.3683V37.5007H63.4768V34.0288C63.9407 34.5629 64.6295 34.8862 65.5712 34.8862C67.4127 34.8862 68.9308 33.2697 68.9308 31.1753C68.9308 29.0808 67.4127 27.4643 65.5712 27.4643ZM65.1495 32.8902C64.1796 32.8902 63.4768 32.2295 63.4768 31.1753C63.4768 30.121 64.1796 29.4604 65.1495 29.4604C66.1195 29.4604 66.8223 30.121 66.8223 31.1753C66.8223 32.2295 66.1195 32.8902 65.1495 32.8902Z" fill="white"/>
<path d="M74.3292 27.4643C73.3874 27.4643 72.6986 27.7876 72.2348 28.3218V27.6611H70.1263V37.5007H72.2348V34.0288C72.6986 34.5629 73.3874 34.8862 74.3292 34.8862C76.1706 34.8862 77.6887 33.2697 77.6887 31.1753C77.6887 29.0808 76.1706 27.4643 74.3292 27.4643ZM73.9075 32.8902C72.9376 32.8902 72.2348 32.2295 72.2348 31.1753C72.2348 30.121 72.9376 29.4604 73.9075 29.4604C74.8774 29.4604 75.5802 30.121 75.5802 31.1753C75.5802 32.2295 74.8774 32.8902 73.9075 32.8902Z" fill="white"/>
<path d="M78.8842 34.6894H80.9927V24.4281H78.8842V34.6894Z" fill="white"/>
<path d="M84.4192 32.0187H89.4093C89.4656 31.7516 89.4937 31.4705 89.4937 31.1753C89.4937 29.0527 87.9756 27.4643 85.9233 27.4643C83.7023 27.4643 82.1842 29.0808 82.1842 31.1753C82.1842 33.2697 83.6742 34.8862 86.0779 34.8862C87.4133 34.8862 88.4535 34.3942 89.1423 33.4384L87.4555 32.4685C87.1743 32.7777 86.6823 33.0026 86.106 33.0026C85.3329 33.0026 84.6863 32.7496 84.4192 32.0187ZM84.3771 30.4443C84.5738 29.7274 85.108 29.3338 85.9092 29.3338C86.5418 29.3338 87.1743 29.629 87.3992 30.4443H84.3771Z" fill="white"/>
<path d="M97.7179 34.8862C99.8545 34.8862 101.373 33.7617 101.373 31.864C101.373 29.7837 99.6999 29.2636 98.2099 28.8137C96.6777 28.3499 96.4387 28.0406 96.4387 27.5908C96.4387 27.1972 96.7902 26.8458 97.493 26.8458C98.3926 26.8458 98.8565 27.2816 99.1938 27.9844L101.091 26.8739C100.375 25.4261 99.1095 24.653 97.493 24.653C95.7921 24.653 94.1897 25.7494 94.1897 27.647C94.1897 29.5306 95.6235 30.2335 97.0854 30.6411C98.5613 31.0488 99.1236 31.2877 99.1236 31.8922C99.1236 32.2717 98.8565 32.6934 97.7882 32.6934C96.6777 32.6934 96.0733 32.1452 95.7219 31.3299L93.782 32.4544C94.3303 33.9022 95.6516 34.8862 97.7179 34.8862Z" fill="white"/>
<path d="M106.339 29.6853V27.6611H104.891V25.6932L102.783 26.3257V27.6611H101.658V29.6853H102.783V32.1733C102.783 34.1412 103.584 34.9706 106.339 34.6894V32.7777C105.411 32.8339 104.891 32.7777 104.891 32.1733V29.6853H106.339Z" fill="white"/>
<path d="M110.769 34.8862C112.835 34.8862 114.494 33.2697 114.494 31.1753C114.494 29.0808 112.835 27.4643 110.769 27.4643C108.703 27.4643 107.044 29.0808 107.044 31.1753C107.044 33.2697 108.703 34.8862 110.769 34.8862ZM110.769 32.8339C109.855 32.8339 109.153 32.1733 109.153 31.1753C109.153 30.1772 109.855 29.5166 110.769 29.5166C111.683 29.5166 112.386 30.1772 112.386 31.1753C112.386 32.1733 111.683 32.8339 110.769 32.8339Z" fill="white"/>
<path d="M117.795 28.9121V27.6611H115.687V34.6894H117.795V31.5126C117.795 30.121 119.032 29.7696 119.904 29.9102V27.5205C119.018 27.5205 118.076 27.9703 117.795 28.9121Z" fill="white"/>
<path d="M122.567 32.0187H127.557C127.613 31.7516 127.642 31.4705 127.642 31.1753C127.642 29.0527 126.123 27.4643 124.071 27.4643C121.85 27.4643 120.332 29.0808 120.332 31.1753C120.332 33.2697 121.822 34.8862 124.226 34.8862C125.561 34.8862 126.601 34.3942 127.29 33.4384L125.603 32.4685C125.322 32.7777 124.83 33.0026 124.254 33.0026C123.481 33.0026 122.834 32.7496 122.567 32.0187ZM122.525 30.4443C122.722 29.7274 123.256 29.3338 124.057 29.3338C124.69 29.3338 125.322 29.629 125.547 30.4443H122.525Z" fill="white"/>
</svg>
